<svg width="16" height="14" viewBox="0 0 16 14" fill="none" xmlns="http://www.w3.org/2000/svg">
<path d="M13.6134 2.05333C13.2789 1.71771 12.8815 1.45142 12.4439 1.26972C12.0064 1.08802 11.5372 0.994492 11.0634 0.994492C10.5896 0.994492 10.1204 1.08802 9.68284 1.26972C9.24526 1.45142 8.84784 1.71771 8.51339 2.05333L8.00006 2.57333L7.48672 2.05333C7.15227 1.71771 6.75486 1.45142 6.31727 1.26972C5.87968 1.08802 5.41053 0.994492 4.93672 0.994492C4.46291 0.994492 3.99376 1.08802 3.55618 1.26972C3.11859 1.45142 2.72118 1.71771 2.38672 2.05333C0.973391 3.46666 0.886724 5.85333 2.66672 7.66666L8.00006 13L13.3334 7.66666C15.1134 5.85333 15.0267 3.46666 13.6134 2.05333Z" stroke="#A3A3A3" stroke-linecap="round" stroke-linejoin="round"/>
</svg>
