<svg width="18" height="10" viewBox="0 0 18 10" fill="none" xmlns="http://www.w3.org/2000/svg">
<path d="M8.6025 8.89751L1.1025 1.39751C1.00314 1.29088 0.949047 1.14984 0.951618 1.00411C0.954189 0.858389 1.01322 0.71935 1.11628 0.61629C1.21934 0.513231 1.35838 0.454196 1.50411 0.451625C1.64983 0.449054 1.79087 0.503147 1.8975 0.602507L9 7.70407L16.1025 0.602507C16.2091 0.503147 16.3502 0.449055 16.4959 0.451626C16.6416 0.454197 16.7807 0.513231 16.8837 0.616291C16.9868 0.719351 17.0458 0.85839 17.0484 1.00412C17.051 1.14984 16.9969 1.29088 16.8975 1.39751L9.3975 8.89751C9.29203 9.00285 9.14906 9.06201 9 9.06201C8.85094 9.06201 8.70797 9.00285 8.6025 8.89751Z" fill="#FE412D"/>
</svg>
