<svg width="127" height="41" viewBox="0 0 127 41" fill="none" xmlns="http://www.w3.org/2000/svg">
<g clip-path="url(#clip0_85_7929)">
<mask id="mask0_85_7929" style="mask-type:luminance" maskUnits="userSpaceOnUse" x="0" y="0" width="127" height="41">
<path d="M126.858 0H0V41H126.858V0Z" fill="white"/>
</mask>
<g mask="url(#mask0_85_7929)">
<g opacity="0.9">
<path d="M33.8796 18.0854C33.7241 17.6254 33.9721 17.1265 34.4324 16.9711C34.8937 16.8169 35.3938 17.0631 35.5486 17.5248C35.7041 17.986 35.4559 18.485 34.9951 18.6403C34.5343 18.7957 34.0344 18.5466 33.8796 18.0854ZM16.2643 32.5658C17.4502 32.8461 18.5012 33.1593 19.7474 33.117C21.0273 33.0691 22.2871 32.8498 23.5167 32.4955C25.94 31.7938 28.438 30.9485 30.6389 29.6951C32.4411 28.6664 34.2981 27.2949 35.1424 25.3259C35.5269 24.4291 35.7444 23.4955 35.8433 22.5248C35.8969 22.0065 35.9747 21.5558 36.0921 21.1202C36.1102 21.0922 36.1282 21.0655 36.1481 21.0388C36.4006 20.7113 36.6717 20.3993 36.9809 20.1234C37.3509 19.7908 37.7775 19.4315 38.2228 19.206C38.4043 19.1134 38.5616 19.0431 38.704 18.93C38.8339 18.9096 38.9584 18.8747 39.0671 18.8126C39.0964 18.797 39.0927 18.7566 39.0721 18.7362C38.7692 18.4267 38.2127 18.3477 37.8216 18.1972C37.64 18.1265 37.4589 18.0468 37.2781 17.958C37.2837 17.9312 37.2867 17.9045 37.285 17.8766C37.2867 17.5875 37.2732 17.5199 37.1512 17.2384C36.9677 16.812 36.7843 16.3638 36.4714 16.012C35.7626 15.2208 34.6681 14.7839 33.6058 14.8101C31.142 14.8761 28.8734 16.4042 27.2054 18.1159C25.0887 20.2886 23.7194 22.869 22.3139 25.5217C21.6007 26.8678 20.8375 28.2612 19.7635 29.3612C18.7064 30.4427 17.4085 31.1307 16.2326 32.0617C16.2001 32.0872 16.1803 32.1225 16.1697 32.1594C16.036 32.2755 16.0486 32.5147 16.2643 32.5658Z" fill="#FF2D16"/>
<path d="M29.512 15.5575C29.512 15.5575 26.328 15.9409 22.7335 12.1025C19.9892 9.17458 20.0917 7.49969 21.0588 7.13307C21.8318 6.8422 22.6097 7.92111 23.5618 9.88631C24.6222 12.0738 26.5674 14.6097 29.512 15.5575Z" fill="#00B8F1"/>
<path d="M24.4794 8.89093C22.0665 3.88709 23.1908 3.14576 23.9539 3.00958C24.7163 2.8748 25.1921 4.16879 25.5385 6.51541C25.8842 8.8617 27.3736 13.2861 30.9998 14.692C30.9998 14.692 26.8923 13.8946 24.4794 8.89093Z" fill="#FFA22B"/>
<path d="M27.7349 16.5197C27.7349 16.5197 24.7207 17.048 21.4932 14.7826C18.2643 12.5167 19.0604 11.2792 19.7874 11.2768C20.5143 11.2755 20.7687 11.7951 22.3973 13.388C24.0247 14.9803 25.166 15.9697 27.7349 16.5197Z" fill="#84C746"/>
<path d="M21.4733 16.0398C22.5727 16.9938 24.3244 17.9081 26.0322 17.9399C26.0322 17.9399 23.6604 18.5755 20.8351 17.3847C18.0106 16.1964 18.4788 15.1903 18.9993 14.9329C19.5179 14.6794 20.3315 15.0504 21.4733 16.0398Z" fill="#862996"/>
<path d="M9.43716 16.5955C6.17738 13.573 6.62392 11.3027 7.18658 10.9919C7.74873 10.6824 8.71897 11.043 9.31711 12.8192C9.85016 14.4071 10.9777 15.5929 10.9777 15.5929C16.4258 21.6936 23.8597 20.7283 23.8597 20.7283C16.659 22.0206 12.6971 19.6177 9.43716 16.5955Z" fill="#FF2D16"/>
<path d="M22.912 21.8749C16.4955 24.0551 12.7008 22.7475 8.07905 20.1826C3.45718 17.6177 0.219823 11.8407 2.04626 11.3896C3.90001 10.9284 3.59345 13.2938 9.67916 18.7563C15.4407 23.9252 22.912 21.8749 22.912 21.8749Z" fill="#D62313"/>
<path d="M22.1101 22.9725C18.2061 25.2957 14.4027 25.4037 8.43949 23.4118C2.47574 21.4186 -1.29469 16.2266 0.412409 15.7742C2.11949 15.3211 2.23761 18.553 9.23556 22.1737C16.2335 25.7983 22.1101 22.9725 22.1101 22.9725Z" fill="#91120A"/>
<path d="M4.46927 24.2242C5.25722 23.8867 6.6135 24.4728 9.42622 25.5037C15.1891 27.6207 21.727 24.4752 21.727 24.4752C11.2459 30.7889 5.06506 26.1855 4.49852 25.7486C4.06135 25.4112 3.58627 24.6014 4.46927 24.2242Z" fill="#1D1C1B"/>
<path d="M13.7501 31.7429C11.5263 32.5199 10.851 31.2465 11.0591 30.9015C11.2675 30.5583 11.8609 30.6697 12.2589 31.1836C12.6562 31.6982 13.7501 31.7429 13.7501 31.7429ZM16.9135 30.8194C16.9135 30.8194 14.1306 31.7965 12.9416 30.7828C11.7514 29.7691 10.6613 29.6516 10.1911 30.5367C9.72151 31.421 11.3534 34.4669 16.9135 30.8194Z" fill="#D4233E"/>
<path d="M9.07221 34.8604C8.96274 34.3521 9.47889 34.0861 10.2158 34.2036C10.9508 34.3191 11.8775 34.0991 11.8775 34.0991C10.4541 35.1824 9.18291 35.3676 9.07221 34.8604ZM8.36394 35.1893C8.77874 36.3011 11.5995 35.9176 15.5024 32.5056C15.5024 32.5056 13.023 33.541 10.9633 33.4266C8.90422 33.3116 7.94914 34.076 8.36394 35.1893Z" fill="#D4233E"/>
<path d="M13.2454 36.2721C13.1541 36.0011 13.3349 35.7284 14.042 35.5817C14.7505 35.4331 15.34 35.1143 15.34 35.1143C14.3175 36.3972 13.3369 36.545 13.2454 36.2721ZM12.22 36.5587C12.4768 37.6817 16.5065 36.6898 17.2119 33.2629C17.2119 33.2629 16.5115 34.1858 14.8051 34.7582C13.1005 35.3323 11.9619 35.4319 12.22 36.5587Z" fill="#D4233E"/>
</g>
<path d="M53.2379 20.0318C53.2379 20.2995 53.4633 20.5137 53.7308 20.5137H54.7059C54.9844 20.5137 55.2099 20.2889 55.2099 20.0209V13.4995C55.2099 13.221 54.9844 13.0049 54.7059 13.0049H53.7308C53.4633 13.0049 53.2379 13.221 53.2379 13.4995V15.8648H49.6381V13.4995C49.6381 13.221 49.413 13.0049 49.1453 13.0049H48.1701C47.8915 13.0049 47.6666 13.221 47.6666 13.4995V20.0209C47.6666 20.2889 47.8915 20.5137 48.1701 20.5137H49.1453C49.413 20.5137 49.6381 20.2995 49.6381 20.0318V17.343H53.2379V20.0318ZM60.492 14.2689C62.0989 14.2689 62.7313 15.1579 62.7313 16.7646C62.7313 18.3714 62.0989 19.2605 60.492 19.2605C58.8845 19.2605 58.2527 18.3714 58.2527 16.7646C58.2527 15.1579 58.8845 14.2689 60.492 14.2689ZM56.2814 16.7646C56.2814 19.5497 57.813 20.6743 60.492 20.6743C63.1704 20.6743 64.7027 19.5497 64.7027 16.7646C64.7027 13.9798 63.1704 12.855 60.492 12.855C57.813 12.855 56.2814 13.9798 56.2814 16.7646ZM65.7742 20.0209C65.7742 20.2889 65.9885 20.5137 66.267 20.5137H70.7667C72.2353 20.5137 73.5421 19.7533 73.5421 18.2642C73.5421 17.5573 73.2419 16.904 72.5348 16.529C73.0597 16.1005 73.2419 15.681 73.2419 15.142C73.2419 13.5834 71.8598 13.0049 70.5209 13.0049H66.267C65.9885 13.0049 65.7742 13.23 65.7742 13.4977V20.0209ZM70.5419 14.4189C70.981 14.4189 71.2706 14.6884 71.2706 15.174C71.2706 15.6596 70.981 15.9291 70.5419 15.9291H67.7455V14.4189H70.5419ZM70.7352 17.3002C71.2922 17.3002 71.5707 17.6644 71.5707 18.2C71.5707 18.7356 71.2922 19.0998 70.7352 19.0998H67.7455V17.3002H70.7352ZM78.739 17.0431C79.3492 17.0431 79.6172 17.4181 79.6172 18.0394C79.6172 18.6607 79.3492 19.0355 78.739 19.0355H76.5849V17.0431H78.739ZM76.5849 15.5649V13.5014C76.5849 13.221 76.3601 13.0049 76.092 13.0049H75.1064C74.8279 13.0049 74.6136 13.221 74.6136 13.5014V20.0104C74.6136 20.2781 74.8174 20.5137 75.0848 20.5137H78.739C80.3033 20.5137 81.5891 19.6568 81.5891 18.0394C81.5891 16.4218 80.3033 15.5649 78.739 15.5649H76.5849ZM82.639 20.0318C82.639 20.2995 82.8638 20.5137 83.1318 20.5137H84.128C84.4065 20.5137 84.6313 20.2889 84.6313 20.0209V13.5014C84.6313 13.221 84.4065 13.0049 84.128 13.0049H83.1318C82.8638 13.0049 82.639 13.221 82.639 13.5014V20.0318ZM89.9462 11.2482C89.5818 11.2482 89.3675 11.1091 89.2712 10.8734C89.2069 10.7126 89.0779 10.6055 88.9068 10.6055H88.4782C88.296 10.6055 88.1892 10.6806 88.1892 10.8734C88.1892 11.8375 88.8963 12.4265 89.9462 12.4265C90.9961 12.4265 91.7032 11.8375 91.7032 10.8734C91.7032 10.6806 91.5957 10.6055 91.4142 10.6055H90.9856C90.8139 10.6055 90.6854 10.7126 90.6212 10.8734C90.5249 11.1091 90.3106 11.2482 89.9462 11.2482ZM93.2675 20.5137C93.5356 20.5137 93.7604 20.2889 93.7604 20.0209V13.5085C93.7604 13.2406 93.5461 13.0158 93.278 13.0158H91.7353C91.4784 13.0158 91.1671 13.2514 91.0171 13.5085L88.0391 18.7356V13.4977C88.0391 13.23 87.8137 13.0158 87.5463 13.0158H86.6242C86.3457 13.0158 86.1314 13.23 86.1314 13.5085V20.0209C86.1314 20.2889 86.3457 20.5137 86.6242 20.5137H88.3602C88.6388 20.5137 88.971 20.2889 89.1211 20.0209L91.8533 15.1687V20.0209C91.8533 20.2889 92.0781 20.5137 92.3461 20.5137H93.2675ZM104.175 20.5137C104.443 20.5137 104.721 20.2976 104.817 20.0406L106.661 14.8939V20.0085C106.661 20.287 106.875 20.5137 107.154 20.5137H108.096C108.375 20.5137 108.589 20.287 108.589 20.0085V13.5101C108.589 13.2316 108.375 13.0049 108.107 13.0049H105.975C105.696 13.0049 105.428 13.2316 105.343 13.4995L103.8 17.9715L102.257 13.4995C102.171 13.2316 101.904 13.0049 101.625 13.0049H99.4927C99.2247 13.0049 99.0104 13.2316 99.0104 13.5101V20.0085C99.0104 20.287 99.2247 20.5137 99.5032 20.5137H100.446C100.725 20.5137 100.939 20.287 100.939 20.0085V14.8939L102.782 20.0406C102.878 20.2976 103.157 20.5137 103.425 20.5137H104.175ZM117.225 20.5137C117.493 20.5137 117.718 20.287 117.718 20.0191V13.4995C117.718 13.2316 117.504 13.0049 117.236 13.0049H115.693C115.436 13.0049 115.125 13.2425 114.975 13.4995L111.997 18.7321V13.4887C111.997 13.221 111.771 13.0049 111.504 13.0049H110.582C110.303 13.0049 110.089 13.221 110.089 13.4995V20.0191C110.089 20.287 110.303 20.5137 110.582 20.5137H112.318C112.597 20.5137 112.929 20.287 113.079 20.0191L115.811 15.1616V20.0191C115.811 20.287 116.036 20.5137 116.304 20.5137H117.225ZM123.097 14.4832C124.125 14.4832 124.886 14.6974 124.886 15.9238C124.886 17.1503 124.125 17.3645 123.097 17.3645H121.189V14.4832H123.097ZM119.7 13.0049C119.432 13.0049 119.218 13.2192 119.218 13.4977V20.0209C119.218 20.2889 119.443 20.5137 119.711 20.5137H120.697C120.975 20.5137 121.189 20.2889 121.189 20.0209V18.8427H123.697C125.69 18.8427 126.858 17.9429 126.858 15.9238C126.858 13.9047 125.69 13.0049 123.697 13.0049H119.7Z" fill="#404040"/>
<path opacity="0.9" d="M47 26.7067C47 27.9143 47.6153 28.466 48.8104 28.466H49.4056C50.0855 28.466 50.8108 28.103 50.8108 27.3975C50.8108 27.1739 50.6257 27.1291 50.5608 27.1291H50.2706C50.1306 27.1291 50.0155 27.1936 49.9206 27.3975C49.8106 27.631 49.6204 27.7802 49.3206 27.7802H48.8354C48.1152 27.7802 47.9203 27.5167 47.9203 26.7067C47.9203 25.8967 48.1152 25.6333 48.8354 25.6333H49.2705C49.5705 25.6333 49.7605 25.7823 49.8707 26.0161C49.9656 26.2197 50.0807 26.2843 50.2207 26.2843H50.5106C50.5758 26.2843 50.7606 26.2397 50.7606 26.0161C50.7606 25.3103 50.0356 24.9476 49.3554 24.9476H48.8104C47.6153 24.9476 47 25.4993 47 26.7067ZM51.2859 28.2174C51.2859 28.3416 51.3859 28.446 51.5156 28.446H53.616C54.3015 28.446 54.9117 28.0931 54.9117 27.4026C54.9117 27.0745 54.7715 26.7714 54.4411 26.5974C54.6863 26.3986 54.7715 26.2039 54.7715 25.9539C54.7715 25.2309 54.1261 24.9625 53.5011 24.9625H51.5156C51.3859 24.9625 51.2859 25.0667 51.2859 25.1911V28.2174ZM53.511 25.6185C53.716 25.6185 53.8513 25.7436 53.8513 25.9688C53.8513 26.194 53.716 26.3191 53.511 26.3191H52.2061V25.6185H53.511ZM53.6012 26.9553C53.8612 26.9553 53.9915 27.1241 53.9915 27.3727C53.9915 27.6211 53.8612 27.7901 53.6012 27.7901H52.2061V26.9553H53.6012ZM58.4572 24.9625H55.6417C55.5163 24.9625 55.4113 25.0619 55.4113 25.1861V26.6993V28.2126C55.4113 28.3416 55.5113 28.446 55.6417 28.446H58.4473C58.577 28.446 58.6771 28.3416 58.6771 28.2174V27.9838C58.6771 27.8597 58.577 27.7602 58.4516 27.7602H56.3315V27.0447H58.162C58.2867 27.0447 58.3923 26.9404 58.3923 26.8159V26.5875C58.3923 26.4633 58.2867 26.3589 58.162 26.3589H56.3315V25.6483H58.4572C58.5819 25.6483 58.6869 25.5489 58.6869 25.4196V25.1911C58.6869 25.0619 58.5819 24.9625 58.4572 24.9625ZM59.0674 24.9625C58.9371 24.9625 58.837 25.0619 58.837 25.1911V25.4196C58.837 25.5489 58.9371 25.6483 59.0674 25.6483H60.1574V28.2215C60.1574 28.3457 60.2624 28.446 60.3871 28.446H60.8478C60.9726 28.446 61.0776 28.3457 61.0776 28.2215V25.6483H62.1676C62.2979 25.6483 62.398 25.5489 62.398 25.4196V25.1911C62.398 25.0619 62.2979 24.9625 62.1676 24.9625H59.0674ZM66.7636 28.1926C66.9137 28.3317 67.0384 28.446 67.2632 28.446H67.8185C67.9438 28.446 68.0087 28.3069 67.9037 28.2174L67.2787 27.6608L67.5733 27.2434C67.6239 27.1739 67.6085 27.0894 67.5337 27.0347L67.2688 26.8559C67.2083 26.8159 67.1187 26.8261 67.0687 26.8956L66.8285 27.2384L65.983 26.5079C65.7434 26.3042 65.5631 26.1104 65.5631 25.862C65.5631 25.6384 65.7335 25.5041 66.0182 25.5041C66.3134 25.5041 66.4987 25.5985 66.5833 25.7328C66.6537 25.8421 66.7383 25.9116 66.8637 25.9116H67.1885C67.2737 25.9116 67.3386 25.8471 67.3386 25.7626C67.3386 25.196 66.8137 24.9177 66.0083 24.9177C65.153 24.9177 64.7133 25.3748 64.7133 25.9066C64.7133 26.1353 64.7831 26.3093 64.9331 26.4732C64.5533 26.6472 64.3483 26.9801 64.3483 27.4173C64.3483 28.0782 64.8232 28.4956 65.7082 28.4956C66.1782 28.4956 66.4832 28.3714 66.7636 28.1926ZM65.7687 27.9092C65.308 27.9092 65.1684 27.6907 65.1684 27.4173C65.1684 27.2285 65.2431 27.0694 65.4136 26.9849L66.2831 27.7653C66.1337 27.8647 65.9731 27.9092 65.7687 27.9092ZM70.1788 27.7602H69.9892C69.8639 27.7602 69.7589 27.8597 69.7589 27.9838V28.2174C69.7589 28.3416 69.8639 28.446 69.9892 28.446H73.5397C73.6644 28.446 73.7694 28.3466 73.7694 28.2224V25.1861C73.7694 25.0619 73.6644 24.9625 73.5397 24.9625H72.2193C71.5091 24.9625 70.8242 25.1414 70.634 25.9167L70.1788 27.7602ZM71.5289 26.1261C71.5993 25.8322 71.8092 25.6483 72.1193 25.6483H72.8499V27.7602H71.1188L71.5289 26.1261ZM77.515 24.9625H74.6995C74.5748 24.9625 74.4698 25.0619 74.4698 25.1861V28.2126C74.4698 28.3416 74.5698 28.446 74.6995 28.446H77.5052C77.6349 28.446 77.7349 28.3416 77.7349 28.2174V27.9838C77.7349 27.8597 77.6349 27.7602 77.5101 27.7602H75.39V27.0447H77.2198C77.3452 27.0447 77.4502 26.9404 77.4502 26.8159V26.5875C77.4502 26.4633 77.3452 26.3589 77.2198 26.3589H75.39V25.6483H77.515C77.6404 25.6483 77.7454 25.5489 77.7454 25.4196V25.1911C77.7454 25.0619 77.6404 24.9625 77.515 24.9625ZM78.8855 28.446C79.0102 28.446 79.1158 28.3466 79.1158 28.2224V27.0447H79.6408C79.9557 27.0447 80.1404 27.2485 80.3257 27.5417L80.7555 28.2174C80.8358 28.3466 81.0062 28.446 81.131 28.446H81.6911C81.8208 28.446 81.856 28.3466 81.7757 28.2174L81.1656 27.2533C81.026 27.0396 80.7759 26.7365 80.5356 26.6869C80.8759 26.6073 81.0408 26.3738 81.1656 26.1501L81.6961 25.196C81.7708 25.0619 81.7461 24.9625 81.6207 24.9625H81.0556C80.9309 24.9625 80.7956 25.0371 80.7061 25.196L80.3257 25.8668C80.1305 26.2147 79.9255 26.3589 79.6408 26.3589H79.1158V25.196C79.1158 25.0668 79.0102 24.9625 78.8855 24.9625H78.4254C78.3006 24.9625 78.1956 25.0668 78.1956 25.196V28.2126C78.1956 28.3416 78.3006 28.446 78.4254 28.446H78.8855ZM83.7872 25.5489C84.5369 25.5489 84.8321 25.9614 84.8321 26.7067C84.8321 27.4522 84.5369 27.8647 83.7872 27.8647C83.0368 27.8647 82.7416 27.4522 82.7416 26.7067C82.7416 25.9614 83.0368 25.5489 83.7872 25.5489ZM81.8214 26.7067C81.8214 27.9988 82.5366 28.5206 83.7872 28.5206C85.0372 28.5206 85.7523 27.9988 85.7523 26.7067C85.7523 25.4148 85.0372 24.8929 83.7872 24.8929C82.5366 24.8929 81.8214 25.4148 81.8214 26.7067ZM88.0627 25.6483C88.5432 25.6483 88.8976 25.7477 88.8976 26.3166C88.8976 26.8855 88.5432 26.9849 88.0627 26.9849H87.1727V25.6483H88.0627ZM86.4774 24.9625C86.3526 24.9625 86.2526 25.0619 86.2526 25.1911V28.2174C86.2526 28.3416 86.3575 28.446 86.4823 28.446H86.9424C87.0727 28.446 87.1727 28.3416 87.1727 28.2174V27.6707H88.3431C89.2731 27.6707 89.8178 27.2533 89.8178 26.3166C89.8178 25.3799 89.2731 24.9625 88.3431 24.9625H86.4774Z" fill="#FF2D16"/>
</g>
</g>
<defs>
<clipPath id="clip0_85_7929">
<rect width="127" height="41" fill="white"/>
</clipPath>
</defs>
</svg>
