<svg width="40" height="40" viewBox="0 0 40 40" fill="none" xmlns="http://www.w3.org/2000/svg">
<path d="M0 20C0 8.95431 8.95431 0 20 0C31.0457 0 40 8.95431 40 20C40 31.0457 31.0457 40 20 40C8.95431 40 0 31.0457 0 20Z" fill="#FF8800"/>
<path fill-rule="evenodd" clip-rule="evenodd" d="M25.4189 14.9673C25.4189 17.9329 23.0013 20.3505 20.0355 20.3505C17.0377 20.3505 14.6201 17.9329 14.6201 14.9673C14.6201 12.0016 17.0377 9.58398 20.0355 9.58398C23.0013 9.58398 25.4189 12.0016 25.4189 14.9673ZM22.2598 14.9673C22.2598 13.7423 21.2605 12.743 20.0355 12.743C18.7784 12.743 17.7791 13.7423 17.8114 14.9673C17.8114 16.1922 18.8107 17.1914 20.0355 17.1914C21.2605 17.1914 22.2598 16.1922 22.2598 14.9673Z" fill="white"/>
<path d="M25.3222 23.4774C24.3551 24.0898 23.2913 24.5089 22.1954 24.7668L25.2577 27.7324C25.8701 28.345 25.8701 29.3442 25.2577 29.9567C24.6453 30.5691 23.646 30.5691 23.0336 29.9567L20.0678 26.991L17.1022 29.9567C16.7799 30.2468 16.3931 30.4079 15.974 30.4079C15.5549 30.4079 15.1681 30.2791 14.8458 29.9567C14.2333 29.3442 14.2333 28.345 14.8458 27.7324L17.8437 24.7345C16.7476 24.4766 15.6839 24.0577 14.7168 23.4451C13.9754 22.9939 13.7498 22.0268 14.1688 21.2854C14.6524 20.544 15.6194 20.3506 16.3608 20.8019C18.5528 22.188 21.4217 22.188 23.6137 20.8019C24.3551 20.3184 25.3545 20.544 25.8057 21.2854C26.2892 22.0268 26.0636 23.026 25.3222 23.4774Z" fill="white"/>
</svg>
