<svg width="24" height="24" viewBox="0 0 24 24" fill="none" xmlns="http://www.w3.org/2000/svg">
<path d="M22.9637 22.0362L17.344 16.4165C18.9466 14.5736 19.771 12.1805 19.6434 9.74158C19.5159 7.30268 18.4464 5.00857 16.6604 3.34283C14.8744 1.6771 12.5114 0.769876 10.0695 0.812405C7.62769 0.854933 5.29773 1.84389 3.57081 3.57081C1.84389 5.29773 0.854933 7.62769 0.812405 10.0695C0.769876 12.5114 1.6771 14.8744 3.34283 16.6604C5.00857 18.4464 7.30268 19.5159 9.74158 19.6434C12.1805 19.771 14.5736 18.9466 16.4165 17.344L22.0362 22.9637C22.1606 23.0797 22.3252 23.1428 22.4952 23.1398C22.6652 23.1368 22.8274 23.0679 22.9477 22.9477C23.0679 22.8274 23.1368 22.6652 23.1398 22.4952C23.1428 22.3252 23.0797 22.1606 22.9637 22.0362ZM2.15623 10.25C2.15623 8.64919 2.63093 7.08435 3.52028 5.75334C4.40963 4.42233 5.6737 3.38493 7.15264 2.77234C8.63158 2.15974 10.259 1.99946 11.829 2.31175C13.399 2.62405 14.8412 3.39491 15.9731 4.52684C17.1051 5.65877 17.8759 7.10094 18.1882 8.67097C18.5005 10.241 18.3402 11.8684 17.7276 13.3473C17.115 14.8263 16.0776 16.0903 14.7466 16.9797C13.4156 17.869 11.8508 18.3437 10.25 18.3437C8.10419 18.3411 6.04702 17.4876 4.52972 15.9703C3.01241 14.4529 2.15884 12.3958 2.15623 10.25Z" fill="#1C1F33"/>
</svg>
