<svg width="40" height="40" viewBox="0 0 40 40" fill="none" xmlns="http://www.w3.org/2000/svg">
<rect width="40" height="40" rx="8" fill="#FE412D"/>
<path d="M27.8312 27.1687L23.8172 23.1547C24.9618 21.8383 25.5507 20.1289 25.4596 18.3868C25.3685 16.6448 24.6045 15.0061 23.3288 13.8163C22.0531 12.6265 20.3653 11.9785 18.6211 12.0089C16.8769 12.0392 15.2126 12.7456 13.9791 13.9792C12.7456 15.2127 12.0392 16.8769 12.0088 18.6211C11.9785 20.3653 12.6265 22.0531 13.8163 23.3289C15.0061 24.6046 16.6447 25.3685 18.3868 25.4596C20.1289 25.5507 21.8383 24.9618 23.1546 23.8172L27.1687 27.8312C27.2576 27.914 27.3751 27.9591 27.4965 27.957C27.618 27.9548 27.7338 27.9056 27.8197 27.8198C27.9056 27.7339 27.9548 27.618 27.9569 27.4966C27.9591 27.3751 27.914 27.2576 27.8312 27.1687ZM12.9687 18.75C12.9687 17.6066 13.3078 16.4888 13.943 15.5381C14.5783 14.5874 15.4812 13.8464 16.5376 13.4088C17.594 12.9712 18.7564 12.8568 19.8778 13.0798C20.9993 13.3029 22.0294 13.8535 22.8379 14.662C23.6464 15.4706 24.1971 16.5007 24.4201 17.6221C24.6432 18.7436 24.5287 19.906 24.0911 20.9624C23.6536 22.0188 22.9126 22.9217 21.9619 23.5569C21.0111 24.1922 19.8934 24.5312 18.75 24.5312C17.2173 24.5294 15.7478 23.9197 14.6641 22.8359C13.5803 21.7521 12.9706 20.2827 12.9687 18.75Z" fill="white"/>
</svg>
