<svg width="23" height="23" viewBox="0 0 23 23" fill="none" xmlns="http://www.w3.org/2000/svg">
<path d="M21.2364 15.5328L16.0695 13.2173C15.8354 13.117 15.58 13.0767 15.3264 13.1C15.0728 13.1233 14.829 13.2095 14.617 13.3508C14.5955 13.3646 14.5751 13.3799 14.5558 13.3967L11.8553 15.6936C11.8273 15.7089 11.7961 15.7174 11.7642 15.7186C11.7323 15.7197 11.7006 15.7134 11.6716 15.7002C9.93579 14.8623 8.13767 13.0752 7.29658 11.3634C7.28257 11.3348 7.27529 11.3034 7.27529 11.2716C7.27529 11.2397 7.28257 11.2083 7.29658 11.1797L9.60111 8.44531C9.61764 8.42508 9.63298 8.4039 9.64704 8.38188C9.78638 8.16915 9.87053 7.92507 9.89192 7.67167C9.91331 7.41828 9.87125 7.16354 9.76954 6.93047L7.47048 1.77235C7.33992 1.46786 7.11412 1.21392 6.82698 1.04866C6.53984 0.883397 6.20685 0.815719 5.87798 0.855783C4.4487 1.04369 3.13673 1.74559 2.18726 2.83033C1.23778 3.91507 0.715767 5.30842 0.718763 6.75C0.718763 15.3141 7.68595 22.2813 16.25 22.2813C17.6915 22.284 19.0848 21.7619 20.1694 20.8125C21.2541 19.8631 21.9561 18.5512 22.1442 17.122C22.1842 16.7947 22.1175 16.4632 21.9539 16.1769C21.7903 15.8905 21.5387 15.6646 21.2364 15.5328ZM16.25 20.9688C8.41001 20.9688 2.03126 14.59 2.03126 6.75C2.02761 5.62774 2.43267 4.54253 3.17078 3.69714C3.90889 2.85175 4.92954 2.304 6.04204 2.15625H6.0672C6.11128 2.15707 6.15408 2.1712 6.18999 2.19676C6.2259 2.22233 6.25325 2.25815 6.26845 2.29953L8.57626 7.45219C8.58942 7.48084 8.59624 7.51199 8.59624 7.54352C8.59624 7.57504 8.58942 7.6062 8.57626 7.63485L6.26736 10.3758C6.25013 10.3954 6.23441 10.4162 6.22033 10.4381C6.07585 10.6587 5.99077 10.9128 5.97333 11.1759C5.95589 11.439 6.00669 11.7021 6.12079 11.9398C7.09095 13.9261 9.09251 15.9123 11.1006 16.8825C11.3397 16.996 11.6041 17.0455 11.8681 17.0264C12.1321 17.0072 12.3865 16.92 12.6067 16.7731C12.6275 16.7589 12.6483 16.7436 12.668 16.7272L15.3674 14.4303C15.394 14.416 15.4235 14.4076 15.4537 14.4057C15.4839 14.4038 15.5141 14.4085 15.5424 14.4194L20.7103 16.7348C20.7525 16.7528 20.788 16.7836 20.8118 16.8229C20.8355 16.8621 20.8463 16.9079 20.8427 16.9536C20.6957 18.0666 20.1485 19.088 19.3033 19.827C18.458 20.5659 17.3727 20.9718 16.25 20.9688Z" fill="#1C1F33"/>
</svg>
