<svg width="49" height="64" viewBox="0 0 49 64" fill="none" xmlns="http://www.w3.org/2000/svg">
<circle cx="24.5" cy="20" r="19.5" stroke="#E3E3E3"/>
<path d="M30.5 23L24.5 17L18.5 23" stroke="#636B71" stroke-width="1.5" stroke-linecap="round" stroke-linejoin="round"/>
<path d="M0.98 59V48.92H2.009V53.463H7.581V48.92H8.603V59H7.581V54.45H2.009V59H0.98ZM12.727 59.21C12.1577 59.21 11.6793 59.1073 11.292 58.902C10.9093 58.6967 10.6223 58.4237 10.431 58.083C10.2397 57.7423 10.144 57.3713 10.144 56.97C10.144 56.5593 10.2257 56.2093 10.389 55.92C10.557 55.626 10.7833 55.3857 11.068 55.199C11.3573 55.0123 11.691 54.87 12.069 54.772C12.4517 54.6787 12.874 54.597 13.336 54.527C13.8027 54.4523 14.2577 54.3893 14.701 54.338C15.149 54.282 15.541 54.2283 15.877 54.177L15.513 54.401C15.527 53.6543 15.3823 53.1013 15.079 52.742C14.7757 52.3827 14.2483 52.203 13.497 52.203C12.979 52.203 12.5403 52.3197 12.181 52.553C11.8263 52.7863 11.5767 53.155 11.432 53.659L10.431 53.365C10.6037 52.6883 10.9513 52.1633 11.474 51.79C11.9967 51.4167 12.6757 51.23 13.511 51.23C14.2017 51.23 14.7873 51.3607 15.268 51.622C15.7533 51.8787 16.0963 52.252 16.297 52.742C16.3903 52.9613 16.451 53.2063 16.479 53.477C16.507 53.7477 16.521 54.023 16.521 54.303V59H15.604V57.103L15.87 57.215C15.6133 57.8637 15.2143 58.3583 14.673 58.699C14.1317 59.0397 13.483 59.21 12.727 59.21ZM12.846 58.321C13.3267 58.321 13.7467 58.2347 14.106 58.062C14.4653 57.8893 14.7547 57.6537 14.974 57.355C15.1933 57.0517 15.3357 56.711 15.401 56.333C15.457 56.0903 15.4873 55.8243 15.492 55.535C15.4967 55.241 15.499 55.0217 15.499 54.877L15.891 55.08C15.541 55.1267 15.1607 55.1733 14.75 55.22C14.344 55.2667 13.9427 55.3203 13.546 55.381C13.154 55.4417 12.7993 55.514 12.482 55.598C12.2673 55.6587 12.0597 55.745 11.859 55.857C11.6583 55.9643 11.4927 56.109 11.362 56.291C11.236 56.473 11.173 56.6993 11.173 56.97C11.173 57.1893 11.2267 57.4017 11.334 57.607C11.446 57.8123 11.6233 57.9827 11.866 58.118C12.1133 58.2533 12.44 58.321 12.846 58.321ZM18.3363 59V51.44H21.4513C21.6099 51.44 21.8013 51.4493 22.0253 51.468C22.2539 51.4867 22.4663 51.5217 22.6623 51.573C23.0869 51.685 23.4276 51.9137 23.6843 52.259C23.9456 52.6043 24.0763 53.0197 24.0763 53.505C24.0763 53.7757 24.0343 54.0183 23.9503 54.233C23.8709 54.443 23.7566 54.625 23.6073 54.779C23.5373 54.8583 23.4603 54.9283 23.3763 54.989C23.2923 55.045 23.2106 55.0917 23.1313 55.129C23.2806 55.157 23.4416 55.2223 23.6143 55.325C23.8849 55.4837 24.0903 55.6983 24.2303 55.969C24.3703 56.235 24.4403 56.5593 24.4403 56.942C24.4403 57.46 24.3166 57.8823 24.0693 58.209C23.8219 58.5357 23.4906 58.7597 23.0753 58.881C22.8886 58.9323 22.6856 58.965 22.4663 58.979C22.2516 58.993 22.0486 59 21.8573 59H18.3363ZM19.3723 58.125H21.8083C21.9063 58.125 22.0299 58.118 22.1793 58.104C22.3286 58.0853 22.4616 58.062 22.5783 58.034C22.8536 57.964 23.0543 57.824 23.1803 57.614C23.3109 57.3993 23.3763 57.166 23.3763 56.914C23.3763 56.5827 23.2783 56.312 23.0823 56.102C22.8909 55.8873 22.6343 55.7567 22.3123 55.71C22.2049 55.6867 22.0929 55.6727 21.9763 55.668C21.8596 55.6633 21.7546 55.661 21.6613 55.661H19.3723V58.125ZM19.3723 54.779H21.4863C21.6076 54.779 21.7429 54.772 21.8923 54.758C22.0463 54.7393 22.1793 54.709 22.2913 54.667C22.5339 54.583 22.7113 54.4383 22.8233 54.233C22.9399 54.0277 22.9983 53.8037 22.9983 53.561C22.9983 53.295 22.9353 53.0617 22.8093 52.861C22.6879 52.6603 22.5036 52.5203 22.2563 52.441C22.0883 52.3803 21.9063 52.3453 21.7103 52.336C21.5189 52.3267 21.3976 52.322 21.3463 52.322H19.3723V54.779ZM29.0345 59.21C28.2971 59.21 27.6578 59.0467 27.1165 58.72C26.5798 58.3933 26.1621 57.9337 25.8635 57.341C25.5648 56.7483 25.4155 56.053 25.4155 55.255C25.4155 54.429 25.5625 53.715 25.8565 53.113C26.1505 52.511 26.5635 52.0467 27.0955 51.72C27.6321 51.3933 28.2645 51.23 28.9925 51.23C29.7391 51.23 30.3761 51.4027 30.9035 51.748C31.4308 52.0887 31.8298 52.5787 32.1005 53.218C32.3711 53.8573 32.4948 54.6203 32.4715 55.507H31.4215V55.143C31.4028 54.163 31.1905 53.4233 30.7845 52.924C30.3831 52.4247 29.7951 52.175 29.0205 52.175C28.2085 52.175 27.5855 52.4387 27.1515 52.966C26.7221 53.4933 26.5075 54.2447 26.5075 55.22C26.5075 56.172 26.7221 56.9117 27.1515 57.439C27.5855 57.9617 28.1991 58.223 28.9925 58.223C29.5338 58.223 30.0051 58.0993 30.4065 57.852C30.8125 57.6 31.1321 57.2383 31.3655 56.767L32.3245 57.138C32.0258 57.796 31.5848 58.307 31.0015 58.671C30.4228 59.0303 29.7671 59.21 29.0345 59.21ZM26.1435 55.507V54.646H31.9185V55.507H26.1435ZM37.4199 59.21C36.7246 59.21 36.1366 59.035 35.6559 58.685C35.1753 58.3303 34.8113 57.852 34.5639 57.25C34.3166 56.6433 34.1929 55.9643 34.1929 55.213C34.1929 54.4477 34.3166 53.7663 34.5639 53.169C34.8159 52.567 35.1846 52.0933 35.6699 51.748C36.1553 51.4027 36.7526 51.23 37.4619 51.23C38.1526 51.23 38.7453 51.405 39.2399 51.755C39.7346 52.105 40.1126 52.581 40.3739 53.183C40.6399 53.785 40.7729 54.4617 40.7729 55.213C40.7729 55.969 40.6399 56.648 40.3739 57.25C40.1079 57.852 39.7253 58.3303 39.2259 58.685C38.7266 59.035 38.1246 59.21 37.4199 59.21ZM34.0179 62.36V51.44H34.9419V57.131H35.0539V62.36H34.0179ZM37.3149 58.251C37.8423 58.251 38.2809 58.118 38.6309 57.852C38.9809 57.586 39.2423 57.2243 39.4149 56.767C39.5923 56.305 39.6809 55.787 39.6809 55.213C39.6809 54.6437 39.5946 54.1303 39.4219 53.673C39.2493 53.2157 38.9856 52.854 38.6309 52.588C38.2809 52.322 37.8353 52.189 37.2939 52.189C36.7666 52.189 36.3279 52.3173 35.9779 52.574C35.6326 52.8307 35.3736 53.1877 35.2009 53.645C35.0283 54.0977 34.9419 54.6203 34.9419 55.213C34.9419 55.7963 35.0283 56.319 35.2009 56.781C35.3736 57.2383 35.6349 57.5977 35.9849 57.859C36.3349 58.1203 36.7783 58.251 37.3149 58.251ZM41.1966 59L44.1506 55.178L41.2596 51.44H42.4916L44.7526 54.387L46.9926 51.44H48.2246L45.3336 55.178L48.2946 59H47.0556L44.7526 55.969L42.4356 59H41.1966Z" fill="#1C1F33"/>
</svg>
