<svg width="40" height="40" viewBox="0 0 40 40" fill="none" xmlns="http://www.w3.org/2000/svg">
<path d="M40 20C40 8.95431 31.0457 0 20 0C8.95431 0 0 8.95431 0 20C0 31.0457 8.95431 40 20 40C31.0457 40 40 31.0457 40 20Z" fill="#0077FF"/>
<path d="M9.23975 19.5696C9.23975 14.6988 9.23975 12.267 10.7462 10.7462C12.2741 9.23975 14.706 9.23975 19.5696 9.23975H20.4304C25.3012 9.23975 27.733 9.23975 29.2538 10.7462C30.7603 12.2741 30.7603 14.706 30.7603 19.5696V20.4304C30.7603 25.3012 30.7603 27.733 29.2538 29.2538C27.7259 30.7603 25.294 30.7603 20.4304 30.7603H19.5696C14.6988 30.7603 12.267 30.7603 10.7462 29.2538C9.23975 27.7259 9.23975 25.294 9.23975 20.4304V19.5696Z" fill="#0077FF"/>
<path d="M20.8694 26.0111C14.5724 26.0111 10.982 21.7027 10.8347 14.5219H14.0017C14.1029 19.7878 16.4229 22.0157 18.2641 22.476V14.5219H21.2377V19.0605C23.0513 18.8672 24.9662 16.7958 25.6106 14.5127H28.575C28.3332 15.6945 27.8504 16.8138 27.1566 17.8007C26.4628 18.7875 25.573 19.6207 24.5427 20.2481C25.6925 20.8204 26.7079 21.6299 27.5219 22.6233C28.336 23.6167 28.9302 24.7713 29.2654 26.0111H25.9972C25.2976 23.8293 23.5484 22.1354 21.2377 21.9052V26.0111H20.8786H20.8694Z" fill="white"/>
</svg>
