<svg width="24" height="24" viewBox="0 0 24 24" fill="none" xmlns="http://www.w3.org/2000/svg">
<g id="profile icons/Handshake" clip-path="url(#clip0_3201_8175)">
<path id="Vector" d="M17.2504 7.75H13.5004L9.2198 11.9022C9.14023 11.9817 9.07957 12.0781 9.04231 12.1843C9.00506 12.2905 8.99216 12.4037 9.00459 12.5155C9.01701 12.6273 9.05444 12.7349 9.11409 12.8303C9.17374 12.9257 9.25408 13.0064 9.34918 13.0666C10.9907 14.1156 13.2192 14.0434 15.0004 12.25L18.7504 15.25L20.2504 13.75" stroke="#E05931" stroke-width="1.2" stroke-linecap="square"/>
<path id="Vector_2" d="M18.75 15.25L15 19L9 17.5L3.75 13.75" stroke="#E05931" stroke-width="1.2" stroke-linecap="square"/>
<path id="Vector_3" d="M6.75 7.75L12 6.25L17.25 7.75" stroke="#E05931" stroke-width="1.2" stroke-linecap="square"/>
<path id="Vector_4" d="M3.41596 6.92283L1.08721 11.5803C1.04307 11.6685 1.01674 11.7644 1.00972 11.8628C1.0027 11.9611 1.01513 12.0598 1.0463 12.1533C1.07747 12.2469 1.12677 12.3333 1.19138 12.4078C1.25599 12.4822 1.33464 12.5432 1.42283 12.5872L3.75158 13.7516L6.75158 7.75158L4.42283 6.58721C4.33469 6.54307 4.23872 6.51674 4.1404 6.50972C4.04208 6.5027 3.94334 6.51513 3.84982 6.5463C3.75631 6.57747 3.66986 6.62677 3.59541 6.69138C3.52096 6.75599 3.45998 6.83464 3.41596 6.92283Z" stroke="#E05931" stroke-width="1.2" stroke-linecap="square"/>
<path id="Vector_5" d="M19.5787 6.58721L17.25 7.75158L20.25 13.7516L22.5787 12.5872C22.6669 12.5432 22.7456 12.4822 22.8102 12.4078C22.8748 12.3333 22.9241 12.2469 22.9553 12.1533C22.9865 12.0598 22.9989 11.9611 22.9919 11.8628C22.9848 11.7644 22.9585 11.6685 22.9144 11.5803L20.5856 6.92283C20.5416 6.83464 20.4806 6.75599 20.4062 6.69138C20.3317 6.62677 20.2453 6.57747 20.1518 6.5463C20.0582 6.51513 19.9595 6.5027 19.8612 6.50972C19.7629 6.51674 19.6669 6.54307 19.5787 6.58721Z" stroke="#E05931" stroke-width="1.2" stroke-linecap="round"/>
</g>
<defs>
<clipPath id="clip0_3201_8175">
<rect width="24" height="24" fill="white"/>
</clipPath>
</defs>
</svg>
