<svg width="24" height="24" viewBox="0 0 24 24" fill="none" xmlns="http://www.w3.org/2000/svg">
<g id="profile icons/UserCircle">
<path id="Vector" d="M12 21C16.9706 21 21 16.9706 21 12C21 7.02944 16.9706 3 12 3C7.02944 3 3 7.02944 3 12C3 16.9706 7.02944 21 12 21Z" stroke="#777878" stroke-width="1.2" stroke-linecap="round" stroke-linejoin="round"/>
<path id="Vector_2" d="M12 15C14.0711 15 15.75 13.3211 15.75 11.25C15.75 9.17893 14.0711 7.5 12 7.5C9.92893 7.5 8.25 9.17893 8.25 11.25C8.25 13.3211 9.92893 15 12 15Z" stroke="#777878" stroke-width="1.2" stroke-linecap="round" stroke-linejoin="round"/>
<path id="Vector_3" d="M5.98438 18.6933C6.54867 17.5819 7.40971 16.6484 8.47207 15.9963C9.53443 15.3442 10.7566 14.999 12.0031 14.999C13.2496 14.999 14.4718 15.3442 15.5342 15.9963C16.5965 16.6484 17.4576 17.5819 18.0219 18.6933" stroke="#777878" stroke-width="1.2" stroke-linecap="round" stroke-linejoin="round"/>
</g>
</svg>
