<svg width="24" height="25" viewBox="0 0 24 25" fill="none" xmlns="http://www.w3.org/2000/svg">
<g id="Outline/Interface/Search" opacity="0.5">
<path id="Icon" fill-rule="evenodd" clip-rule="evenodd" d="M14.3849 15.9458C11.7346 18.0685 7.8552 17.9014 5.39842 15.4446C2.76238 12.8086 2.76238 8.5347 5.39842 5.89866C8.03445 3.26262 12.3083 3.26262 14.9444 5.89866C17.4011 8.35544 17.5682 12.2349 15.4456 14.8851L20.6012 20.0408C20.8941 20.3337 20.8941 20.8085 20.6012 21.1014C20.3083 21.3943 19.8334 21.3943 19.5405 21.1014L14.3849 15.9458ZM6.45908 14.3839C4.40882 12.3337 4.40882 9.00957 6.45908 6.95932C8.50933 4.90907 11.8334 4.90907 13.8837 6.95932C15.9324 9.00807 15.9339 12.3288 13.8882 14.3794C13.8867 14.3809 13.8852 14.3824 13.8837 14.3839C13.8822 14.3854 13.8807 14.3869 13.8792 14.3884C11.8286 16.4342 8.50783 16.4327 6.45908 14.3839Z" fill="#08090A"/>
</g>
</svg>
