<svg width="24" height="24" viewBox="0 0 24 24" fill="none" xmlns="http://www.w3.org/2000/svg">
<g id="DotsThreeVertical" clip-path="url(#clip0_3427_14639)">
<path id="Vector" d="M10.0002 11.9999C10.0002 13.1045 10.8957 13.9999 12.0002 13.9999C13.1048 13.9999 14.0002 13.1045 14.0002 11.9999C14.0002 10.8954 13.1048 9.99994 12.0002 9.99994C10.8957 9.99994 10.0002 10.8954 10.0002 11.9999Z" fill="#777878"/>
<path id="Vector_2" d="M16 12C16 13.1046 16.8954 14 18 14C19.1046 14 20 13.1046 20 12C20 10.8954 19.1046 10 18 10C16.8954 10 16 10.8954 16 12Z" fill="#777878"/>
<path id="Vector_3" d="M3.99976 12C3.99976 13.1046 4.89519 14 5.99976 14C7.10433 14 7.99976 13.1046 7.99976 12C7.99976 10.8954 7.10433 10 5.99976 10C4.89519 10 3.99976 10.8954 3.99976 12Z" fill="#777878"/>
</g>
<defs>
<clipPath id="clip0_3427_14639">
<rect width="24" height="24" fill="white"/>
</clipPath>
</defs>
</svg>
