<svg width="18" height="18" viewBox="0 0 18 18" fill="none" xmlns="http://www.w3.org/2000/svg">
<g id="PaperPlaneTilt">
<path id="Vector" d="M14.6073 3.97089C14.6298 3.89071 14.6307 3.80595 14.6096 3.72535C14.5886 3.64474 14.5464 3.5712 14.4875 3.51229C14.4286 3.45339 14.3551 3.41124 14.2745 3.3902C14.1939 3.36916 14.1091 3.36998 14.0289 3.39257L2.77893 6.8039C2.68708 6.82982 2.60534 6.88316 2.54462 6.95679C2.4839 7.03041 2.4471 7.12082 2.43913 7.21592C2.43117 7.31102 2.45243 7.40629 2.50006 7.48899C2.54769 7.57168 2.61943 7.63787 2.70569 7.67871L7.72249 10.0541C7.82016 10.1004 7.89882 10.1791 7.94514 10.2768L10.3211 15.293C10.362 15.3792 10.4281 15.451 10.5108 15.4986C10.5935 15.5462 10.6888 15.5675 10.7839 15.5595C10.879 15.5516 10.9694 15.5148 11.043 15.454C11.1167 15.3933 11.17 15.3116 11.1959 15.2197L14.6073 3.97089Z" stroke="#E05931" stroke-width="1.5" stroke-linecap="round" stroke-linejoin="round"/>
<path id="Vector_2" d="M7.85254 10.1473L10.8748 7.125" stroke="#E05931" stroke-width="1.5" stroke-linecap="round" stroke-linejoin="round"/>
</g>
</svg>
