<svg width="41" height="40" viewBox="0 0 41 40" fill="none" xmlns="http://www.w3.org/2000/svg">
<g id="profile icons/Bell">
<path id="Vector" d="M15.5 30C15.5 31.3261 16.0268 32.5979 16.9645 33.5355C17.9021 34.4732 19.1739 35 20.5 35C21.8261 35 23.0979 34.4732 24.0355 33.5355C24.9732 32.5979 25.5 31.3261 25.5 30" fill="#E6E6E7"/>
<path id="Vector_2" d="M9.24999 16.25C9.24999 13.2663 10.4353 10.4048 12.545 8.29505C14.6548 6.18526 17.5163 5 20.5 5C23.4837 5 26.3452 6.18526 28.4549 8.29505C30.5647 10.4048 31.75 13.2663 31.75 16.25C31.75 21.8469 33.0469 26.3438 34.0781 28.125C34.1876 28.3147 34.2454 28.5299 34.2456 28.7489C34.2458 28.9679 34.1884 29.1832 34.0792 29.3731C33.97 29.563 33.8129 29.7209 33.6234 29.8309C33.434 29.9409 33.219 29.9992 33 30H7.99999C7.78121 29.9987 7.5666 29.94 7.37762 29.8297C7.18865 29.7195 7.03191 29.5616 6.92309 29.3718C6.81427 29.1819 6.75718 28.9669 6.75751 28.7481C6.75784 28.5293 6.81559 28.3145 6.92499 28.125C7.95468 26.3438 9.24999 21.8453 9.24999 16.25Z" fill="#E6E6E7"/>
</g>
</svg>
