<svg width="20" height="21" viewBox="0 0 20 21" fill="none" xmlns="http://www.w3.org/2000/svg">
<g clip-path="url(#clip0_3120_4263)">
<path d="M10 18C14.1421 18 17.5 14.6421 17.5 10.5C17.5 6.35786 14.1421 3 10 3C5.85786 3 2.5 6.35786 2.5 10.5C2.5 14.6421 5.85786 18 10 18Z" stroke="#777878" stroke-width="1.2" stroke-miterlimit="10"/>
<path d="M10 11.125V6.75" stroke="#777878" stroke-width="1.2" stroke-linecap="round" stroke-linejoin="round"/>
<path d="M10 14.875C10.5178 14.875 10.9375 14.4553 10.9375 13.9375C10.9375 13.4197 10.5178 13 10 13C9.48223 13 9.0625 13.4197 9.0625 13.9375C9.0625 14.4553 9.48223 14.875 10 14.875Z" fill="#777878"/>
</g>
<defs>
<clipPath id="clip0_3120_4263">
<rect width="20" height="20" fill="white" transform="translate(0 0.5)"/>
</clipPath>
</defs>
</svg>
