<svg width="41" height="41" viewBox="0 0 41 41" fill="none" xmlns="http://www.w3.org/2000/svg">
<g id="profile icons/Handshake" clip-path="url(#clip0_2745_97135)">
<path id="Vector" d="M29.2507 13.417H23.0007L15.8663 20.3373C15.7337 20.4699 15.6326 20.6306 15.5705 20.8075C15.5084 20.9844 15.4869 21.1731 15.5076 21.3595C15.5284 21.5458 15.5907 21.7251 15.6901 21.8841C15.7896 22.0431 15.9235 22.1777 16.082 22.2779C18.8179 24.0264 22.532 23.9061 25.5007 20.917L31.7507 25.917L34.2507 23.417" stroke="#DEDEDE" stroke-width="1.2" stroke-linecap="square"/>
<path id="Vector_2" d="M31.75 25.917L25.5 32.167L15.5 29.667L6.75 23.417" stroke="#DEDEDE" stroke-width="1.2" stroke-linecap="square"/>
<path id="Vector_3" d="M11.75 13.417L20.5 10.917L29.25 13.417" stroke="#DEDEDE" stroke-width="1.2" stroke-linecap="square"/>
<path id="Vector_4" d="M6.19326 12.0384L2.31201 19.8009C2.23845 19.9478 2.19456 20.1077 2.18286 20.2716C2.17116 20.4355 2.19188 20.6 2.24383 20.7559C2.29579 20.9118 2.37795 21.0558 2.48563 21.1799C2.59331 21.304 2.7244 21.4056 2.87139 21.479L6.75264 23.4196L11.7526 13.4196L7.87139 11.479C7.72449 11.4054 7.56453 11.3616 7.40066 11.3499C7.23679 11.3382 7.07223 11.3589 6.91637 11.4108C6.76051 11.4628 6.61643 11.5449 6.49235 11.6526C6.36827 11.7603 6.26664 11.8914 6.19326 12.0384Z" fill="#DEDEDE" stroke="#DEDEDE" stroke-width="1.2" stroke-linecap="square"/>
<path id="Vector_5" d="M33.1312 11.479L29.25 13.4196L34.25 23.4196L38.1312 21.479C38.2782 21.4056 38.4093 21.304 38.517 21.1799C38.6247 21.0558 38.7069 20.9118 38.7588 20.7559C38.8108 20.6 38.8315 20.4355 38.8198 20.2716C38.8081 20.1077 38.7642 19.9478 38.6906 19.8009L34.8094 12.0384C34.736 11.8914 34.6344 11.7603 34.5103 11.6526C34.3862 11.5449 34.2421 11.4628 34.0863 11.4108C33.9304 11.3589 33.7658 11.3382 33.602 11.3499C33.4381 11.3616 33.2781 11.4054 33.1312 11.479Z" fill="#DEDEDE" stroke="#DEDEDE" stroke-width="1.2" stroke-linecap="round"/>
</g>
<defs>
<clipPath id="clip0_2745_97135">
<rect width="40" height="40" fill="white" transform="translate(0.5 0.5)"/>
</clipPath>
</defs>
</svg>
