<svg width="24" height="24" viewBox="0 0 24 24" fill="none" xmlns="http://www.w3.org/2000/svg">
<path d="M9 21.75C9.9665 21.75 10.75 20.9665 10.75 20C10.75 19.0335 9.9665 18.25 9 18.25C8.0335 18.25 7.25 19.0335 7.25 20C7.25 20.9665 8.0335 21.75 9 21.75Z" stroke="black" stroke-width="1.5" stroke-linecap="round" stroke-linejoin="round"/>
<path d="M18 21.75C18.9665 21.75 19.75 20.9665 19.75 20C19.75 19.0335 18.9665 18.25 18 18.25C17.0335 18.25 16.25 19.0335 16.25 20C16.25 20.9665 17.0335 21.75 18 21.75Z" stroke="black" stroke-width="1.5" stroke-linecap="round" stroke-linejoin="round"/>
<path d="M2.05005 2.05H4.05005L6.71005 14.47C6.80763 14.9249 7.06072 15.3315 7.42576 15.6199C7.7908 15.9082 8.24495 16.0604 8.71005 16.05H18.49C18.9452 16.0493 19.3865 15.8933 19.7411 15.6078C20.0956 15.3224 20.3422 14.9245 20.4401 14.48L22.09 7.05H5.12005" stroke="black" stroke-width="1.5" stroke-linecap="round" stroke-linejoin="round"/>
</svg>
