<svg width="21" height="14" viewBox="0 0 21 14" fill="none" xmlns="http://www.w3.org/2000/svg">
<path d="M0.75 1C0.75 0.801088 0.829018 0.610322 0.96967 0.46967C1.11032 0.329018 1.30109 0.25 1.5 0.25H18C18.1989 0.25 18.3897 0.329018 18.5303 0.46967C18.671 0.610322 18.75 0.801088 18.75 1C18.75 1.19891 18.671 1.38968 18.5303 1.53033C18.3897 1.67098 18.1989 1.75 18 1.75H1.5C1.30109 1.75 1.11032 1.67098 0.96967 1.53033C0.829018 1.38968 0.75 1.19891 0.75 1ZM1.5 7.75H8.25C8.44891 7.75 8.63968 7.67098 8.78033 7.53033C8.92098 7.38968 9 7.19891 9 7C9 6.80109 8.92098 6.61032 8.78033 6.46967C8.63968 6.32902 8.44891 6.25 8.25 6.25H1.5C1.30109 6.25 1.11032 6.32902 0.96967 6.46967C0.829018 6.61032 0.75 6.80109 0.75 7C0.75 7.19891 0.829018 7.38968 0.96967 7.53033C1.11032 7.67098 1.30109 7.75 1.5 7.75ZM9.75 12.25H1.5C1.30109 12.25 1.11032 12.329 0.96967 12.4697C0.829018 12.6103 0.75 12.8011 0.75 13C0.75 13.1989 0.829018 13.3897 0.96967 13.5303C1.11032 13.671 1.30109 13.75 1.5 13.75H9.75C9.94891 13.75 10.1397 13.671 10.2803 13.5303C10.421 13.3897 10.5 13.1989 10.5 13C10.5 12.8011 10.421 12.6103 10.2803 12.4697C10.1397 12.329 9.94891 12.25 9.75 12.25ZM20.0306 13.5306C19.961 13.6004 19.8783 13.6557 19.7872 13.6934C19.6962 13.7312 19.5986 13.7506 19.5 13.7506C19.4014 13.7506 19.3038 13.7312 19.2128 13.6934C19.1217 13.6557 19.039 13.6004 18.9694 13.5306L17.0625 11.6275C16.287 12.1391 15.3493 12.3447 14.4309 12.2043C13.5125 12.064 12.6789 11.5877 12.0916 10.8679C11.5044 10.148 11.2052 9.23574 11.2522 8.30789C11.2991 7.38004 11.6888 6.50265 12.3457 5.84572C13.0026 5.18879 13.88 4.7991 14.8079 4.75216C15.7357 4.70522 16.648 5.00437 17.3679 5.59164C18.0877 6.17891 18.564 7.0125 18.7043 7.93088C18.8447 8.84925 18.6391 9.78703 18.1275 10.5625L20.0306 12.4656C20.1009 12.5353 20.1567 12.6183 20.1948 12.7097C20.2329 12.8011 20.2525 12.8991 20.2525 12.9981C20.2525 13.0971 20.2329 13.1952 20.1948 13.2866C20.1567 13.378 20.1009 13.4609 20.0306 13.5306ZM15 10.75C15.445 10.75 15.88 10.618 16.25 10.3708C16.62 10.1236 16.9084 9.77217 17.0787 9.36104C17.249 8.9499 17.2936 8.4975 17.2068 8.06105C17.12 7.62459 16.9057 7.22368 16.591 6.90901C16.2763 6.59434 15.8754 6.38005 15.439 6.29323C15.0025 6.20642 14.5501 6.25097 14.139 6.42127C13.7278 6.59157 13.3764 6.87996 13.1292 7.24997C12.882 7.61998 12.75 8.05499 12.75 8.5C12.75 9.09674 12.9871 9.66903 13.409 10.091C13.831 10.5129 14.4033 10.75 15 10.75Z" fill="#1C1F33"/>
</svg>
