<svg width="23" height="20" viewBox="0 0 23 20" fill="none" xmlns="http://www.w3.org/2000/svg">
<path d="M19.9201 2.58C19.4184 2.07658 18.8223 1.67714 18.1659 1.40459C17.5095 1.13204 16.8058 0.991745 16.0951 0.991745C15.3844 0.991745 14.6806 1.13204 14.0243 1.40459C13.3679 1.67714 12.7718 2.07658 12.2701 2.58L11.5001 3.36L10.7301 2.58C10.2284 2.07658 9.63229 1.67714 8.97591 1.40459C8.31953 1.13204 7.6158 0.991745 6.90509 0.991745C6.19437 0.991745 5.49065 1.13204 4.83427 1.40459C4.17789 1.67714 3.58176 2.07658 3.08009 2.58C0.960086 4.7 0.830086 8.28 3.50009 11L11.5001 19L19.5001 11C22.1701 8.28 22.0401 4.7 19.9201 2.58Z" stroke="#1C1F33" stroke-width="1.5" stroke-linecap="round" stroke-linejoin="round"/>
</svg>
