<svg width="20" height="20" viewBox="0 0 20 20" fill="none" xmlns="http://www.w3.org/2000/svg">
<path d="M16.6665 5.83301H9.1665" stroke="#636B71" stroke-width="1.5" stroke-linecap="round" stroke-linejoin="round"/>
<path d="M11.6665 14.167H4.1665" stroke="#636B71" stroke-width="1.5" stroke-linecap="round" stroke-linejoin="round"/>
<path d="M14.1665 16.667C15.5472 16.667 16.6665 15.5477 16.6665 14.167C16.6665 12.7863 15.5472 11.667 14.1665 11.667C12.7858 11.667 11.6665 12.7863 11.6665 14.167C11.6665 15.5477 12.7858 16.667 14.1665 16.667Z" stroke="#636B71" stroke-width="1.5" stroke-linecap="round" stroke-linejoin="round"/>
<path d="M5.8335 8.33301C7.21421 8.33301 8.3335 7.21372 8.3335 5.83301C8.3335 4.4523 7.21421 3.33301 5.8335 3.33301C4.45278 3.33301 3.3335 4.4523 3.3335 5.83301C3.3335 7.21372 4.45278 8.33301 5.8335 8.33301Z" stroke="#636B71" stroke-width="1.5" stroke-linecap="round" stroke-linejoin="round"/>
</svg>
