<svg width="20" height="20" viewBox="0 0 20 20" fill="none" xmlns="http://www.w3.org/2000/svg">
<path d="M16.6666 8.33342C16.6666 13.3334 9.99992 18.3334 9.99992 18.3334C9.99992 18.3334 3.33325 13.3334 3.33325 8.33342C3.33325 6.56531 4.03563 4.86961 5.28587 3.61937C6.53612 2.36913 8.23181 1.66675 9.99992 1.66675C11.768 1.66675 13.4637 2.36913 14.714 3.61937C15.9642 4.86961 16.6666 6.56531 16.6666 8.33342Z" stroke="#FE412D" stroke-linecap="round" stroke-linejoin="round"/>
<path d="M10 10.8333C11.3807 10.8333 12.5 9.71396 12.5 8.33325C12.5 6.95254 11.3807 5.83325 10 5.83325C8.61929 5.83325 7.5 6.95254 7.5 8.33325C7.5 9.71396 8.61929 10.8333 10 10.8333Z" stroke="#FE412D" stroke-linecap="round" stroke-linejoin="round"/>
</svg>
