<svg width="18" height="18" viewBox="0 0 18 18" fill="none" xmlns="http://www.w3.org/2000/svg">
<path d="M11.5001 3.90008L10.6667 7.33342H15.5251C15.7838 7.33342 16.039 7.39366 16.2704 7.50937C16.5019 7.62508 16.7032 7.79309 16.8584 8.00008C17.0137 8.20708 17.1186 8.44737 17.1649 8.70194C17.2111 8.95651 17.1975 9.21836 17.1251 9.46675L15.1834 16.1334C15.0824 16.4796 14.8719 16.7837 14.5834 17.0001C14.2949 17.2165 13.944 17.3334 13.5834 17.3334H2.33341C1.89139 17.3334 1.46746 17.1578 1.1549 16.8453C0.842343 16.5327 0.666748 16.1088 0.666748 15.6667V9.00008C0.666748 8.55805 0.842343 8.13413 1.1549 7.82157C1.46746 7.50901 1.89139 7.33342 2.33341 7.33342H4.63341C4.94348 7.33325 5.24736 7.24659 5.51088 7.08318C5.77439 6.91977 5.9871 6.68609 6.12508 6.40842L9.00008 0.666748C9.39306 0.671614 9.77986 0.765222 10.1316 0.940578C10.4833 1.11593 10.7909 1.3685 11.0313 1.67942C11.2716 1.99033 11.4387 2.35155 11.5199 2.73608C11.601 3.12062 11.5943 3.51853 11.5001 3.90008Z" fill="#FE412D"/>
</svg>
