<svg width="16" height="16" viewBox="0 0 16 16" fill="none" xmlns="http://www.w3.org/2000/svg">
<path d="M7.55173 0.575063C7.73515 0.203479 8.26502 0.203479 8.44844 0.575063L10.4589 4.64796C10.5316 4.79538 10.6722 4.89761 10.8349 4.92139L15.3315 5.57864C15.7415 5.63856 15.9049 6.14248 15.6081 6.43156L12.3551 9.59992C12.2372 9.71479 12.1834 9.88035 12.2112 10.0426L12.9788 14.5181C13.0489 14.9265 12.6201 15.238 12.2533 15.0451L8.23281 12.9308C8.08712 12.8542 7.91305 12.8542 7.76736 12.9308L3.7469 15.0451C3.38008 15.238 2.95131 14.9265 3.02137 14.5181L3.78896 10.0426C3.81679 9.88035 3.76296 9.71479 3.64502 9.59992L0.392088 6.43156C0.0952914 6.14248 0.258682 5.63856 0.66864 5.57864L5.16527 4.92139C5.32794 4.89761 5.46853 4.79538 5.5413 4.64796L7.55173 0.575063Z" fill="#FE412D"/>
</svg>
