<svg width="1203" height="200" viewBox="0 0 1203 200" fill="none" xmlns="http://www.w3.org/2000/svg">
<path d="M80 0C35.816 0 0 35.816 0 80C0 102.084 8.948 122.08 23.42 136.556C37.896 151.04 72 172 74 194C74.2998 197.298 76.688 200 80 200C83.312 200 85.7001 197.298 86 194C88 172 122.104 151.04 136.58 136.556C151.052 122.08 160 102.084 160 80C160 35.816 124.184 0 80 0Z" fill="url(#paint0_linear_11603_48061)"/>
<path d="M80 108.004C95.464 108.004 108 95.4679 108 80.0039C108 64.5399 95.464 52.0039 80 52.0039C64.536 52.0039 52 64.5399 52 80.0039C52 95.4679 64.536 108.004 80 108.004Z" fill="white"/>
<path d="M299.54 148.016H320.667V26.6667H289.937C259.032 26.6667 242.794 42.5556 242.794 65.9525C242.794 84.635 251.698 95.635 267.587 106.984L240 148.016H262.873L293.603 102.095L282.952 94.9366C270.032 86.2064 263.746 79.3969 263.746 64.7302C263.746 51.8096 272.825 43.0795 290.111 43.0795H299.54V148.016ZM576.984 142.079V125.143C570.524 129.508 559.698 133.349 549.571 133.349C534.381 133.349 528.619 126.191 527.746 111.524H577.857V100.524C577.857 69.9683 564.413 58.4445 543.635 58.4445C518.317 58.4445 506.27 77.8255 506.27 104.365C506.27 134.921 521.286 149.762 547.825 149.762C561.095 149.762 570.873 146.27 576.984 142.079ZM706.889 149.762C716.492 149.762 723.302 148.016 728.365 144.349V127.413C723.127 131.079 716.841 133.349 708.111 133.349C693.27 133.349 687.159 121.825 687.159 103.667C687.159 84.635 694.667 74.8572 708.286 74.8572C716.317 74.8572 724.175 77.6509 728.365 80.2699V62.635C724 60.1906 716.317 58.4445 706.016 58.4445C679.476 58.4445 665.682 77.4763 665.682 104.191C665.682 133.524 679.127 149.762 706.889 149.762ZM386.667 60.1906V94.9366H358.905V60.1906H338.127V148.016H358.905V111.349H386.667V148.016H407.444V60.1906H386.667ZM501.206 131.603H491.952V60.1906H431.365V67.6985C431.365 89.1747 429.968 116.937 422.635 131.603H416.175V168.095H435.381V148.016H482V168.095H501.206V131.603ZM643.333 148.016H666.905L633.555 100.698L662.889 60.1906H641.936L612.603 100.698V60.1906H591.825V148.016H612.603V104.889L643.333 148.016ZM543.286 74.8572C553.587 74.8572 556.73 83.4128 556.73 94.4128V96.1588H527.746C528.27 82.1906 533.333 74.8572 543.286 74.8572ZM471.175 131.603H441.841C447.603 118.333 449.175 94.4128 449.175 79.2223V76.6033H471.175V131.603Z" fill="black"/>
<path d="M835.585 148.016H860.204L816.903 84.1112L857.411 26.6667H836.458L797.173 82.5398V26.6667H776.046V148.016H797.173V91.0953L835.585 148.016Z" fill="black"/>
<path d="M930.261 88.1271C930.261 66.8255 919.435 58.7937 897.435 58.7937C883.642 58.7937 872.816 63.1588 866.531 66.8255V84.1112C872.118 79.9207 884.34 75.381 894.991 75.381C904.943 75.381 909.483 78.8731 909.483 88.3017V93.1906H906.165C874.388 93.1906 860.245 103.667 860.245 121.476C860.245 139.286 871.07 149.238 887.134 149.238C899.356 149.238 904.594 145.222 908.61 141.032H909.483C909.657 143.302 910.356 146.27 911.054 148.016H931.308C930.61 140.857 930.261 133.698 930.261 126.54V88.1271ZM909.483 127.064C906.864 130.905 901.975 134.048 894.642 134.048C885.911 134.048 881.546 128.81 881.546 120.952C881.546 110.651 888.705 106.984 906.515 106.984H909.483V127.064Z" fill="black"/>
<path d="M965.56 60.1906H946.354V173.333H967.131V137.714C972.369 145.572 980.052 149.762 988.957 149.762C1009.21 149.762 1023.18 133.524 1023.18 104.016C1023.18 74.6826 1009.56 58.4445 990.004 58.4445C980.227 58.4445 972.195 62.9842 966.608 71.5398L965.56 60.1906ZM983.719 133.349C972.719 133.349 967.131 124.445 967.131 104.191C967.131 83.762 973.068 74.8572 984.766 74.8572C996.116 74.8572 1001.7 83.762 1001.7 104.016C1001.7 124.445 995.766 133.349 983.719 133.349Z" fill="black"/>
<path d="M1095.6 76.6033V60.1906H1025.93V76.6033H1050.37V148.016H1071.15V76.6033H1095.6Z" fill="black"/>
<path d="M1107.28 60.1906V148.016H1138.89C1159.32 148.016 1173.81 137.54 1173.81 116.937C1173.81 97.381 1160.89 87.0794 1139.24 87.0794H1128.06V60.1906H1107.28ZM1181.49 60.1906V148.016H1202.27V60.1906H1181.49ZM1137.66 131.603H1128.06V103.492H1138.19C1147.09 103.492 1152.33 107.508 1152.33 117.635C1152.33 127.762 1146.57 131.603 1137.66 131.603Z" fill="black"/>
<defs>
<linearGradient id="paint0_linear_11603_48061" x1="80" y1="0" x2="80" y2="200" gradientUnits="userSpaceOnUse">
<stop stop-color="#FF6122"/>
<stop offset="1" stop-color="#F22411"/>
</linearGradient>
</defs>
</svg>
