<svg width="14" height="13" viewBox="0 0 14 13" fill="none" xmlns="http://www.w3.org/2000/svg">
<path d="M12.6134 2.05322C12.2789 1.71761 11.8815 1.45131 11.4439 1.26962C11.0064 1.08792 10.5372 0.994385 10.0634 0.994385C9.58958 0.994385 9.12043 1.08792 8.68284 1.26962C8.24526 1.45131 7.84784 1.71761 7.51339 2.05322L7.00006 2.57322L6.48672 2.05322C6.15227 1.71761 5.75486 1.45131 5.31727 1.26962C4.87968 1.08792 4.41053 0.994385 3.93672 0.994385C3.46291 0.994385 2.99376 1.08792 2.55618 1.26962C2.11859 1.45131 1.72118 1.71761 1.38672 2.05322C-0.0266091 3.46656 -0.113276 5.85322 1.66672 7.66656L7.00006 12.9999L12.3334 7.66656C14.1134 5.85322 14.0267 3.46656 12.6134 2.05322Z" fill="#FE412D"/>
</svg>
